<?xml version="1.0" encoding="utf-8" standalone="no"?>
<!DOCTYPE svg PUBLIC "-//W3C//DTD SVG 1.1//EN"
  "http://www.w3.org/Graphics/SVG/1.1/DTD/svg11.dtd">
<svg height="345.6pt" version="1.1" viewBox="0 0 460.8 345.6" width="460.8pt" xmlns="http://www.w3.org/2000/svg" xmlns:xlink="http://www.w3.org/1999/xlink">
 <metadata>
  <rdf:RDF xmlns:cc="http://creativecommons.org/ns#" xmlns:dc="http://purl.org/dc/elements/1.1/" xmlns:rdf="http://www.w3.org/1999/02/22-rdf-syntax-ns#">
   <cc:Work>
    <dc:type rdf:resource="http://purl.org/dc/dcmitype/StillImage"/>
    <dc:date>2021-11-08T12:06:33.884671</dc:date>
    <dc:format>image/svg+xml</dc:format>
    <dc:creator>
     <cc:Agent>
      <dc:title>Matplotlib v3.4.3, https://matplotlib.org/</dc:title>
     </cc:Agent>
    </dc:creator>
   </cc:Work>
  </rdf:RDF>
 </metadata>
 <defs>
  <style type="text/css">*{stroke-linecap:butt;stroke-linejoin:round;}</style>
 </defs>
 <g id="figure_1">
  <g id="patch_1">
   <path d="M 0 345.6 
L 460.8 345.6 
L 460.8 0 
L 0 0 
z
" style="fill:#ffffff;"/>
  </g>
  <g id="axes_1">
   <g id="patch_2">
    <path d="M 57.6 307.584 
L 414.72 307.584 
L 414.72 41.472 
L 57.6 41.472 
z
" style="fill:#ffffff;"/>
   </g>
   <g id="PathCollection_1">
    <defs>
     <path d="M -3 3 
L 3 -3 
M -3 -3 
L 3 3 
" id="m5fe759677a" style="stroke:#0000ff;stroke-width:1.5;"/>
    </defs>
    <g clip-path="url(#pc4ab6550ca)">
     <use style="fill:#0000ff;stroke:#0000ff;stroke-width:1.5;" x="260.140027" xlink:href="#m5fe759677a" y="218.537157"/>
     <use style="fill:#0000ff;stroke:#0000ff;stroke-width:1.5;" x="339.123576" xlink:href="#m5fe759677a" y="172.688712"/>
     <use style="fill:#0000ff;stroke:#0000ff;stroke-width:1.5;" x="194.384623" xlink:href="#m5fe759677a" y="149.663451"/>
     <use style="fill:#0000ff;stroke:#0000ff;stroke-width:1.5;" x="214.529356" xlink:href="#m5fe759677a" y="225.413378"/>
     <use style="fill:#0000ff;stroke:#0000ff;stroke-width:1.5;" x="205.110397" xlink:href="#m5fe759677a" y="136.717848"/>
     <use style="fill:#0000ff;stroke:#0000ff;stroke-width:1.5;" x="342.173757" xlink:href="#m5fe759677a" y="295.488"/>
     <use style="fill:#0000ff;stroke:#0000ff;stroke-width:1.5;" x="329.247762" xlink:href="#m5fe759677a" y="138.692428"/>
     <use style="fill:#0000ff;stroke:#0000ff;stroke-width:1.5;" x="182.474073" xlink:href="#m5fe759677a" y="152.723787"/>
     <use style="fill:#0000ff;stroke:#0000ff;stroke-width:1.5;" x="321.250035" xlink:href="#m5fe759677a" y="169.604281"/>
     <use style="fill:#0000ff;stroke:#0000ff;stroke-width:1.5;" x="306.457456" xlink:href="#m5fe759677a" y="165.606382"/>
     <use style="fill:#0000ff;stroke:#0000ff;stroke-width:1.5;" x="234.747175" xlink:href="#m5fe759677a" y="110.070548"/>
     <use style="fill:#0000ff;stroke:#0000ff;stroke-width:1.5;" x="242.64759" xlink:href="#m5fe759677a" y="219.349076"/>
     <use style="fill:#0000ff;stroke:#0000ff;stroke-width:1.5;" x="205.657288" xlink:href="#m5fe759677a" y="139.571124"/>
     <use style="fill:#0000ff;stroke:#0000ff;stroke-width:1.5;" x="221.306504" xlink:href="#m5fe759677a" y="187.21312"/>
     <use style="fill:#0000ff;stroke:#0000ff;stroke-width:1.5;" x="142.396466" xlink:href="#m5fe759677a" y="161.66443"/>
     <use style="fill:#0000ff;stroke:#0000ff;stroke-width:1.5;" x="363.143871" xlink:href="#m5fe759677a" y="223.25675"/>
     <use style="fill:#0000ff;stroke:#0000ff;stroke-width:1.5;" x="349.407062" xlink:href="#m5fe759677a" y="190.529375"/>
     <use style="fill:#0000ff;stroke:#0000ff;stroke-width:1.5;" x="287.426681" xlink:href="#m5fe759677a" y="231.066191"/>
     <use style="fill:#0000ff;stroke:#0000ff;stroke-width:1.5;" x="252.901817" xlink:href="#m5fe759677a" y="174.680766"/>
     <use style="fill:#0000ff;stroke:#0000ff;stroke-width:1.5;" x="136.638374" xlink:href="#m5fe759677a" y="174.289907"/>
     <use style="fill:#0000ff;stroke:#0000ff;stroke-width:1.5;" x="227.364981" xlink:href="#m5fe759677a" y="146.424504"/>
     <use style="fill:#0000ff;stroke:#0000ff;stroke-width:1.5;" x="321.2244" xlink:href="#m5fe759677a" y="169.297369"/>
     <use style="fill:#0000ff;stroke:#0000ff;stroke-width:1.5;" x="237.734736" xlink:href="#m5fe759677a" y="220.13836"/>
     <use style="fill:#0000ff;stroke:#0000ff;stroke-width:1.5;" x="221.995716" xlink:href="#m5fe759677a" y="53.568"/>
     <use style="fill:#0000ff;stroke:#0000ff;stroke-width:1.5;" x="248.057121" xlink:href="#m5fe759677a" y="145.707201"/>
     <use style="fill:#0000ff;stroke:#0000ff;stroke-width:1.5;" x="239.131639" xlink:href="#m5fe759677a" y="140.830191"/>
     <use style="fill:#0000ff;stroke:#0000ff;stroke-width:1.5;" x="272.388001" xlink:href="#m5fe759677a" y="120.709504"/>
     <use style="fill:#0000ff;stroke:#0000ff;stroke-width:1.5;" x="391.529864" xlink:href="#m5fe759677a" y="220.238392"/>
     <use style="fill:#0000ff;stroke:#0000ff;stroke-width:1.5;" x="262.430535" xlink:href="#m5fe759677a" y="196.06707"/>
     <use style="fill:#0000ff;stroke:#0000ff;stroke-width:1.5;" x="303.311806" xlink:href="#m5fe759677a" y="204.509243"/>
     <use style="fill:#0000ff;stroke:#0000ff;stroke-width:1.5;" x="325.58059" xlink:href="#m5fe759677a" y="88.543269"/>
     <use style="fill:#0000ff;stroke:#0000ff;stroke-width:1.5;" x="178.484188" xlink:href="#m5fe759677a" y="94.679084"/>
     <use style="fill:#0000ff;stroke:#0000ff;stroke-width:1.5;" x="254.787064" xlink:href="#m5fe759677a" y="119.935047"/>
     <use style="fill:#0000ff;stroke:#0000ff;stroke-width:1.5;" x="331.428917" xlink:href="#m5fe759677a" y="134.419087"/>
     <use style="fill:#0000ff;stroke:#0000ff;stroke-width:1.5;" x="280.585843" xlink:href="#m5fe759677a" y="157.247109"/>
     <use style="fill:#0000ff;stroke:#0000ff;stroke-width:1.5;" x="325.004212" xlink:href="#m5fe759677a" y="85.129578"/>
     <use style="fill:#0000ff;stroke:#0000ff;stroke-width:1.5;" x="186.770771" xlink:href="#m5fe759677a" y="203.223254"/>
     <use style="fill:#0000ff;stroke:#0000ff;stroke-width:1.5;" x="223.647134" xlink:href="#m5fe759677a" y="184.047818"/>
     <use style="fill:#0000ff;stroke:#0000ff;stroke-width:1.5;" x="301.162881" xlink:href="#m5fe759677a" y="168.443717"/>
     <use style="fill:#0000ff;stroke:#0000ff;stroke-width:1.5;" x="283.187442" xlink:href="#m5fe759677a" y="180.245753"/>
     <use style="fill:#0000ff;stroke:#0000ff;stroke-width:1.5;" x="355.551129" xlink:href="#m5fe759677a" y="161.603315"/>
     <use style="fill:#0000ff;stroke:#0000ff;stroke-width:1.5;" x="293.57552" xlink:href="#m5fe759677a" y="95.827806"/>
     <use style="fill:#0000ff;stroke:#0000ff;stroke-width:1.5;" x="263.639764" xlink:href="#m5fe759677a" y="176.271329"/>
     <use style="fill:#0000ff;stroke:#0000ff;stroke-width:1.5;" x="184.807999" xlink:href="#m5fe759677a" y="123.615232"/>
     <use style="fill:#0000ff;stroke:#0000ff;stroke-width:1.5;" x="209.200814" xlink:href="#m5fe759677a" y="175.571729"/>
     <use style="fill:#0000ff;stroke:#0000ff;stroke-width:1.5;" x="320.709625" xlink:href="#m5fe759677a" y="165.79017"/>
     <use style="fill:#0000ff;stroke:#0000ff;stroke-width:1.5;" x="207.046631" xlink:href="#m5fe759677a" y="168.157491"/>
     <use style="fill:#0000ff;stroke:#0000ff;stroke-width:1.5;" x="258.254009" xlink:href="#m5fe759677a" y="188.310488"/>
     <use style="fill:#0000ff;stroke:#0000ff;stroke-width:1.5;" x="323.221207" xlink:href="#m5fe759677a" y="222.674065"/>
     <use style="fill:#0000ff;stroke:#0000ff;stroke-width:1.5;" x="214.435103" xlink:href="#m5fe759677a" y="143.271106"/>
     <use style="fill:#0000ff;stroke:#0000ff;stroke-width:1.5;" x="205.824446" xlink:href="#m5fe759677a" y="221.304097"/>
     <use style="fill:#0000ff;stroke:#0000ff;stroke-width:1.5;" x="164.129773" xlink:href="#m5fe759677a" y="203.648312"/>
     <use style="fill:#0000ff;stroke:#0000ff;stroke-width:1.5;" x="239.39135" xlink:href="#m5fe759677a" y="143.061655"/>
     <use style="fill:#0000ff;stroke:#0000ff;stroke-width:1.5;" x="208.40051" xlink:href="#m5fe759677a" y="132.999551"/>
     <use style="fill:#0000ff;stroke:#0000ff;stroke-width:1.5;" x="395.263793" xlink:href="#m5fe759677a" y="200.551459"/>
     <use style="fill:#0000ff;stroke:#0000ff;stroke-width:1.5;" x="230.435157" xlink:href="#m5fe759677a" y="248.962877"/>
     <use style="fill:#0000ff;stroke:#0000ff;stroke-width:1.5;" x="278.300151" xlink:href="#m5fe759677a" y="111.156512"/>
     <use style="fill:#0000ff;stroke:#0000ff;stroke-width:1.5;" x="362.476719" xlink:href="#m5fe759677a" y="214.197357"/>
     <use style="fill:#0000ff;stroke:#0000ff;stroke-width:1.5;" x="218.76029" xlink:href="#m5fe759677a" y="195.24154"/>
     <use style="fill:#0000ff;stroke:#0000ff;stroke-width:1.5;" x="369.304321" xlink:href="#m5fe759677a" y="236.131017"/>
     <use style="fill:#0000ff;stroke:#0000ff;stroke-width:1.5;" x="133.177192" xlink:href="#m5fe759677a" y="104.627135"/>
     <use style="fill:#0000ff;stroke:#0000ff;stroke-width:1.5;" x="295.489424" xlink:href="#m5fe759677a" y="146.468726"/>
     <use style="fill:#0000ff;stroke:#0000ff;stroke-width:1.5;" x="301.770259" xlink:href="#m5fe759677a" y="187.546199"/>
     <use style="fill:#0000ff;stroke:#0000ff;stroke-width:1.5;" x="202.653407" xlink:href="#m5fe759677a" y="254.248434"/>
     <use style="fill:#0000ff;stroke:#0000ff;stroke-width:1.5;" x="234.253889" xlink:href="#m5fe759677a" y="180.620157"/>
     <use style="fill:#0000ff;stroke:#0000ff;stroke-width:1.5;" x="166.673772" xlink:href="#m5fe759677a" y="147.269733"/>
     <use style="fill:#0000ff;stroke:#0000ff;stroke-width:1.5;" x="269.976237" xlink:href="#m5fe759677a" y="198.563899"/>
     <use style="fill:#0000ff;stroke:#0000ff;stroke-width:1.5;" x="286.347061" xlink:href="#m5fe759677a" y="99.143571"/>
     <use style="fill:#0000ff;stroke:#0000ff;stroke-width:1.5;" x="240.979714" xlink:href="#m5fe759677a" y="190.265798"/>
     <use style="fill:#0000ff;stroke:#0000ff;stroke-width:1.5;" x="151.787847" xlink:href="#m5fe759677a" y="212.279685"/>
     <use style="fill:#0000ff;stroke:#0000ff;stroke-width:1.5;" x="167.021563" xlink:href="#m5fe759677a" y="102.267344"/>
     <use style="fill:#0000ff;stroke:#0000ff;stroke-width:1.5;" x="318.598239" xlink:href="#m5fe759677a" y="199.323656"/>
     <use style="fill:#0000ff;stroke:#0000ff;stroke-width:1.5;" x="341.751897" xlink:href="#m5fe759677a" y="165.899254"/>
     <use style="fill:#0000ff;stroke:#0000ff;stroke-width:1.5;" x="269.419197" xlink:href="#m5fe759677a" y="130.709738"/>
     <use style="fill:#0000ff;stroke:#0000ff;stroke-width:1.5;" x="300.543739" xlink:href="#m5fe759677a" y="188.764303"/>
     <use style="fill:#0000ff;stroke:#0000ff;stroke-width:1.5;" x="227.040929" xlink:href="#m5fe759677a" y="166.679602"/>
     <use style="fill:#0000ff;stroke:#0000ff;stroke-width:1.5;" x="398.487273" xlink:href="#m5fe759677a" y="125.27915"/>
     <use style="fill:#0000ff;stroke:#0000ff;stroke-width:1.5;" x="274.885621" xlink:href="#m5fe759677a" y="234.949526"/>
     <use style="fill:#0000ff;stroke:#0000ff;stroke-width:1.5;" x="247.420769" xlink:href="#m5fe759677a" y="139.677824"/>
     <use style="fill:#0000ff;stroke:#0000ff;stroke-width:1.5;" x="352.847998" xlink:href="#m5fe759677a" y="124.17089"/>
     <use style="fill:#0000ff;stroke:#0000ff;stroke-width:1.5;" x="179.613874" xlink:href="#m5fe759677a" y="115.154244"/>
     <use style="fill:#0000ff;stroke:#0000ff;stroke-width:1.5;" x="218.023561" xlink:href="#m5fe759677a" y="95.838799"/>
     <use style="fill:#0000ff;stroke:#0000ff;stroke-width:1.5;" x="216.977344" xlink:href="#m5fe759677a" y="186.890951"/>
     <use style="fill:#0000ff;stroke:#0000ff;stroke-width:1.5;" x="267.678895" xlink:href="#m5fe759677a" y="144.648972"/>
     <use style="fill:#0000ff;stroke:#0000ff;stroke-width:1.5;" x="218.196322" xlink:href="#m5fe759677a" y="253.812757"/>
     <use style="fill:#0000ff;stroke:#0000ff;stroke-width:1.5;" x="211.534602" xlink:href="#m5fe759677a" y="247.173537"/>
     <use style="fill:#0000ff;stroke:#0000ff;stroke-width:1.5;" x="183.887605" xlink:href="#m5fe759677a" y="172.001519"/>
     <use style="fill:#0000ff;stroke:#0000ff;stroke-width:1.5;" x="255.334921" xlink:href="#m5fe759677a" y="214.827699"/>
     <use style="fill:#0000ff;stroke:#0000ff;stroke-width:1.5;" x="215.786245" xlink:href="#m5fe759677a" y="279.979271"/>
     <use style="fill:#0000ff;stroke:#0000ff;stroke-width:1.5;" x="268.98381" xlink:href="#m5fe759677a" y="202.011188"/>
     <use style="fill:#0000ff;stroke:#0000ff;stroke-width:1.5;" x="273.50005" xlink:href="#m5fe759677a" y="197.983482"/>
     <use style="fill:#0000ff;stroke:#0000ff;stroke-width:1.5;" x="73.832727" xlink:href="#m5fe759677a" y="175.714287"/>
     <use style="fill:#0000ff;stroke:#0000ff;stroke-width:1.5;" x="215.547766" xlink:href="#m5fe759677a" y="140.414815"/>
     <use style="fill:#0000ff;stroke:#0000ff;stroke-width:1.5;" x="181.133174" xlink:href="#m5fe759677a" y="115.339171"/>
     <use style="fill:#0000ff;stroke:#0000ff;stroke-width:1.5;" x="245.663178" xlink:href="#m5fe759677a" y="116.546061"/>
     <use style="fill:#0000ff;stroke:#0000ff;stroke-width:1.5;" x="244.615008" xlink:href="#m5fe759677a" y="89.581605"/>
     <use style="fill:#0000ff;stroke:#0000ff;stroke-width:1.5;" x="357.437862" xlink:href="#m5fe759677a" y="142.778375"/>
     <use style="fill:#0000ff;stroke:#0000ff;stroke-width:1.5;" x="280.338987" xlink:href="#m5fe759677a" y="112.345672"/>
     <use style="fill:#0000ff;stroke:#0000ff;stroke-width:1.5;" x="301.120773" xlink:href="#m5fe759677a" y="171.984964"/>
     <use style="fill:#0000ff;stroke:#0000ff;stroke-width:1.5;" x="342.256548" xlink:href="#m5fe759677a" y="163.519792"/>
    </g>
   </g>
   <g id="PathCollection_2">
    <defs>
     <path d="M 0 3 
C 0.795609 3 1.55874 2.683901 2.12132 2.12132 
C 2.683901 1.55874 3 0.795609 3 0 
C 3 -0.795609 2.683901 -1.55874 2.12132 -2.12132 
C 1.55874 -2.683901 0.795609 -3 0 -3 
C -0.795609 -3 -1.55874 -2.683901 -2.12132 -2.12132 
C -2.683901 -1.55874 -3 -0.795609 -3 0 
C -3 0.795609 -2.683901 1.55874 -2.12132 2.12132 
C -1.55874 2.683901 -0.795609 3 0 3 
z
" id="m9824b8d8af" style="stroke:#ff0000;"/>
    </defs>
    <g clip-path="url(#pc4ab6550ca)">
     <use style="fill:#ff0000;stroke:#ff0000;" x="260.197777" xlink:href="#m9824b8d8af" y="168.532747"/>
     <use style="fill:#ff0000;stroke:#ff0000;" x="339.121699" xlink:href="#m9824b8d8af" y="174.313751"/>
     <use style="fill:#ff0000;stroke:#ff0000;" x="194.368399" xlink:href="#m9824b8d8af" y="163.710889"/>
     <use style="fill:#ff0000;stroke:#ff0000;" x="214.598905" xlink:href="#m9824b8d8af" y="165.192729"/>
     <use style="fill:#ff0000;stroke:#ff0000;" x="205.078317" xlink:href="#m9824b8d8af" y="164.495367"/>
     <use style="fill:#ff0000;stroke:#ff0000;" x="342.313432" xlink:href="#m9824b8d8af" y="174.547539"/>
     <use style="fill:#ff0000;stroke:#ff0000;" x="329.207461" xlink:href="#m9824b8d8af" y="173.587555"/>
     <use style="fill:#ff0000;stroke:#ff0000;" x="182.462391" xlink:href="#m9824b8d8af" y="162.8388"/>
     <use style="fill:#ff0000;stroke:#ff0000;" x="321.246108" xlink:href="#m9824b8d8af" y="173.004403"/>
     <use style="fill:#ff0000;stroke:#ff0000;" x="306.450163" xlink:href="#m9824b8d8af" y="171.920633"/>
     <use style="fill:#ff0000;stroke:#ff0000;" x="234.681815" xlink:href="#m9824b8d8af" y="166.663758"/>
     <use style="fill:#ff0000;stroke:#ff0000;" x="242.707757" xlink:href="#m9824b8d8af" y="167.251641"/>
     <use style="fill:#ff0000;stroke:#ff0000;" x="205.628456" xlink:href="#m9824b8d8af" y="164.535663"/>
     <use style="fill:#ff0000;stroke:#ff0000;" x="221.331366" xlink:href="#m9824b8d8af" y="165.685867"/>
     <use style="fill:#ff0000;stroke:#ff0000;" x="142.398499" xlink:href="#m9824b8d8af" y="159.904207"/>
     <use style="fill:#ff0000;stroke:#ff0000;" x="363.198359" xlink:href="#m9824b8d8af" y="176.077314"/>
     <use style="fill:#ff0000;stroke:#ff0000;" x="349.424918" xlink:href="#m9824b8d8af" y="175.068439"/>
     <use style="fill:#ff0000;stroke:#ff0000;" x="287.496592" xlink:href="#m9824b8d8af" y="170.532325"/>
     <use style="fill:#ff0000;stroke:#ff0000;" x="252.909534" xlink:href="#m9824b8d8af" y="167.998899"/>
     <use style="fill:#ff0000;stroke:#ff0000;" x="136.655474" xlink:href="#m9824b8d8af" y="159.483543"/>
     <use style="fill:#ff0000;stroke:#ff0000;" x="227.342228" xlink:href="#m9824b8d8af" y="166.12615"/>
     <use style="fill:#ff0000;stroke:#ff0000;" x="321.220121" xlink:href="#m9824b8d8af" y="173.0025"/>
     <use style="fill:#ff0000;stroke:#ff0000;" x="237.796231" xlink:href="#m9824b8d8af" y="166.891882"/>
     <use style="fill:#ff0000;stroke:#ff0000;" x="221.866185" xlink:href="#m9824b8d8af" y="165.725041"/>
     <use style="fill:#ff0000;stroke:#ff0000;" x="248.031789" xlink:href="#m9824b8d8af" y="167.641615"/>
     <use style="fill:#ff0000;stroke:#ff0000;" x="239.10143" xlink:href="#m9824b8d8af" y="166.987485"/>
     <use style="fill:#ff0000;stroke:#ff0000;" x="272.331743" xlink:href="#m9824b8d8af" y="169.421533"/>
     <use style="fill:#ff0000;stroke:#ff0000;" x="391.578466" xlink:href="#m9824b8d8af" y="178.156094"/>
     <use style="fill:#ff0000;stroke:#ff0000;" x="262.462143" xlink:href="#m9824b8d8af" y="168.698606"/>
     <use style="fill:#ff0000;stroke:#ff0000;" x="303.349705" xlink:href="#m9824b8d8af" y="171.693531"/>
     <use style="fill:#ff0000;stroke:#ff0000;" x="325.482687" xlink:href="#m9824b8d8af" y="173.314723"/>
     <use style="fill:#ff0000;stroke:#ff0000;" x="178.405813" xlink:href="#m9824b8d8af" y="162.541664"/>
     <use style="fill:#ff0000;stroke:#ff0000;" x="254.7314" xlink:href="#m9824b8d8af" y="168.132346"/>
     <use style="fill:#ff0000;stroke:#ff0000;" x="331.383497" xlink:href="#m9824b8d8af" y="173.746945"/>
     <use style="fill:#ff0000;stroke:#ff0000;" x="280.571086" xlink:href="#m9824b8d8af" y="170.025047"/>
     <use style="fill:#ff0000;stroke:#ff0000;" x="324.902415" xlink:href="#m9824b8d8af" y="173.27222"/>
     <use style="fill:#ff0000;stroke:#ff0000;" x="186.817043" xlink:href="#m9824b8d8af" y="163.157769"/>
     <use style="fill:#ff0000;stroke:#ff0000;" x="223.668143" xlink:href="#m9824b8d8af" y="165.857031"/>
     <use style="fill:#ff0000;stroke:#ff0000;" x="301.159313" xlink:href="#m9824b8d8af" y="171.533089"/>
     <use style="fill:#ff0000;stroke:#ff0000;" x="283.199023" xlink:href="#m9824b8d8af" y="170.217538"/>
     <use style="fill:#ff0000;stroke:#ff0000;" x="355.535061" xlink:href="#m9824b8d8af" y="175.515994"/>
     <use style="fill:#ff0000;stroke:#ff0000;" x="293.488736" xlink:href="#m9824b8d8af" y="170.971236"/>
     <use style="fill:#ff0000;stroke:#ff0000;" x="263.648409" xlink:href="#m9824b8d8af" y="168.785498"/>
     <use style="fill:#ff0000;stroke:#ff0000;" x="184.762505" xlink:href="#m9824b8d8af" y="163.007278"/>
     <use style="fill:#ff0000;stroke:#ff0000;" x="209.213256" xlink:href="#m9824b8d8af" y="164.798242"/>
     <use style="fill:#ff0000;stroke:#ff0000;" x="320.70134" xlink:href="#m9824b8d8af" y="172.9645"/>
     <use style="fill:#ff0000;stroke:#ff0000;" x="207.050693" xlink:href="#m9824b8d8af" y="164.639839"/>
     <use style="fill:#ff0000;stroke:#ff0000;" x="258.277013" xlink:href="#m9824b8d8af" y="168.392055"/>
     <use style="fill:#ff0000;stroke:#ff0000;" x="323.278399" xlink:href="#m9824b8d8af" y="173.153264"/>
     <use style="fill:#ff0000;stroke:#ff0000;" x="214.409801" xlink:href="#m9824b8d8af" y="165.178878"/>
     <use style="fill:#ff0000;stroke:#ff0000;" x="205.889986" xlink:href="#m9824b8d8af" y="164.55482"/>
     <use style="fill:#ff0000;stroke:#ff0000;" x="164.178451" xlink:href="#m9824b8d8af" y="161.499541"/>
     <use style="fill:#ff0000;stroke:#ff0000;" x="239.363696" xlink:href="#m9824b8d8af" y="167.006696"/>
     <use style="fill:#ff0000;stroke:#ff0000;" x="208.363858" xlink:href="#m9824b8d8af" y="164.736026"/>
     <use style="fill:#ff0000;stroke:#ff0000;" x="395.289344" xlink:href="#m9824b8d8af" y="178.427908"/>
     <use style="fill:#ff0000;stroke:#ff0000;" x="230.530556" xlink:href="#m9824b8d8af" y="166.359688"/>
     <use style="fill:#ff0000;stroke:#ff0000;" x="278.232361" xlink:href="#m9824b8d8af" y="169.85374"/>
     <use style="fill:#ff0000;stroke:#ff0000;" x="362.520801" xlink:href="#m9824b8d8af" y="176.027684"/>
     <use style="fill:#ff0000;stroke:#ff0000;" x="218.794639" xlink:href="#m9824b8d8af" y="165.500057"/>
     <use style="fill:#ff0000;stroke:#ff0000;" x="369.373155" xlink:href="#m9824b8d8af" y="176.529604"/>
     <use style="fill:#ff0000;stroke:#ff0000;" x="133.114137" xlink:href="#m9824b8d8af" y="159.224148"/>
     <use style="fill:#ff0000;stroke:#ff0000;" x="295.460959" xlink:href="#m9824b8d8af" y="171.115697"/>
     <use style="fill:#ff0000;stroke:#ff0000;" x="301.7887" xlink:href="#m9824b8d8af" y="171.579191"/>
     <use style="fill:#ff0000;stroke:#ff0000;" x="202.75726" xlink:href="#m9824b8d8af" y="164.325355"/>
     <use style="fill:#ff0000;stroke:#ff0000;" x="234.270042" xlink:href="#m9824b8d8af" y="166.633597"/>
     <use style="fill:#ff0000;stroke:#ff0000;" x="166.657128" xlink:href="#m9824b8d8af" y="161.681099"/>
     <use style="fill:#ff0000;stroke:#ff0000;" x="270.01009" xlink:href="#m9824b8d8af" y="169.251477"/>
     <use style="fill:#ff0000;stroke:#ff0000;" x="286.264718" xlink:href="#m9824b8d8af" y="170.442093"/>
     <use style="fill:#ff0000;stroke:#ff0000;" x="241.006437" xlink:href="#m9824b8d8af" y="167.127023"/>
     <use style="fill:#ff0000;stroke:#ff0000;" x="151.847536" xlink:href="#m9824b8d8af" y="160.596329"/>
     <use style="fill:#ff0000;stroke:#ff0000;" x="166.952921" xlink:href="#m9824b8d8af" y="161.702765"/>
     <use style="fill:#ff0000;stroke:#ff0000;" x="318.628856" xlink:href="#m9824b8d8af" y="172.812695"/>
     <use style="fill:#ff0000;stroke:#ff0000;" x="341.741958" xlink:href="#m9824b8d8af" y="174.505679"/>
     <use style="fill:#ff0000;stroke:#ff0000;" x="269.374739" xlink:href="#m9824b8d8af" y="169.204939"/>
     <use style="fill:#ff0000;stroke:#ff0000;" x="300.56369" xlink:href="#m9824b8d8af" y="171.489461"/>
     <use style="fill:#ff0000;stroke:#ff0000;" x="227.041594" xlink:href="#m9824b8d8af" y="166.104129"/>
     <use style="fill:#ff0000;stroke:#ff0000;" x="398.425626" xlink:href="#m9824b8d8af" y="178.657634"/>
     <use style="fill:#ff0000;stroke:#ff0000;" x="274.961077" xlink:href="#m9824b8d8af" y="169.614126"/>
     <use style="fill:#ff0000;stroke:#ff0000;" x="247.388528" xlink:href="#m9824b8d8af" y="167.594497"/>
     <use style="fill:#ff0000;stroke:#ff0000;" x="352.788932" xlink:href="#m9824b8d8af" y="175.314846"/>
     <use style="fill:#ff0000;stroke:#ff0000;" x="179.559049" xlink:href="#m9824b8d8af" y="162.626136"/>
     <use style="fill:#ff0000;stroke:#ff0000;" x="217.943181" xlink:href="#m9824b8d8af" y="165.43769"/>
     <use style="fill:#ff0000;stroke:#ff0000;" x="217.0022" xlink:href="#m9824b8d8af" y="165.368765"/>
     <use style="fill:#ff0000;stroke:#ff0000;" x="267.650681" xlink:href="#m9824b8d8af" y="169.078656"/>
     <use style="fill:#ff0000;stroke:#ff0000;" x="218.298357" xlink:href="#m9824b8d8af" y="165.463706"/>
     <use style="fill:#ff0000;stroke:#ff0000;" x="211.629533" xlink:href="#m9824b8d8af" y="164.975229"/>
     <use style="fill:#ff0000;stroke:#ff0000;" x="183.898066" xlink:href="#m9824b8d8af" y="162.94396"/>
     <use style="fill:#ff0000;stroke:#ff0000;" x="255.388795" xlink:href="#m9824b8d8af" y="168.180499"/>
     <use style="fill:#ff0000;stroke:#ff0000;" x="215.918701" xlink:href="#m9824b8d8af" y="165.289401"/>
     <use style="fill:#ff0000;stroke:#ff0000;" x="269.021728" xlink:href="#m9824b8d8af" y="169.179082"/>
     <use style="fill:#ff0000;stroke:#ff0000;" x="273.532935" xlink:href="#m9824b8d8af" y="169.509518"/>
     <use style="fill:#ff0000;stroke:#ff0000;" x="73.856785" xlink:href="#m9824b8d8af" y="154.883677"/>
     <use style="fill:#ff0000;stroke:#ff0000;" x="215.519072" xlink:href="#m9824b8d8af" y="165.260129"/>
     <use style="fill:#ff0000;stroke:#ff0000;" x="181.078433" xlink:href="#m9824b8d8af" y="162.737428"/>
     <use style="fill:#ff0000;stroke:#ff0000;" x="245.604373" xlink:href="#m9824b8d8af" y="167.463812"/>
     <use style="fill:#ff0000;stroke:#ff0000;" x="244.525153" xlink:href="#m9824b8d8af" y="167.384761"/>
     <use style="fill:#ff0000;stroke:#ff0000;" x="357.399895" xlink:href="#m9824b8d8af" y="175.652589"/>
     <use style="fill:#ff0000;stroke:#ff0000;" x="280.272398" xlink:href="#m9824b8d8af" y="170.003169"/>
     <use style="fill:#ff0000;stroke:#ff0000;" x="301.121298" xlink:href="#m9824b8d8af" y="171.530305"/>
     <use style="fill:#ff0000;stroke:#ff0000;" x="342.243818" xlink:href="#m9824b8d8af" y="174.542439"/>
    </g>
   </g>
   <g id="matplotlib.axis_1">
    <g id="xtick_1">
     <g id="line2d_1">
      <defs>
       <path d="M 0 0 
L 0 3.5 
" id="m274219bd0f" style="stroke:#000000;stroke-width:0.8;"/>
      </defs>
      <g>
       <use style="stroke:#000000;stroke-width:0.8;" x="60.175218" xlink:href="#m274219bd0f" y="307.584"/>
      </g>
     </g>
     <g id="text_1">
      <!-- −5 -->
      <g transform="translate(52.804124 322.182437)scale(0.1 -0.1)">
       <defs>
        <path d="M 678 2272 
L 4684 2272 
L 4684 1741 
L 678 1741 
L 678 2272 
z
" id="DejaVuSans-2212" transform="scale(0.015625)"/>
        <path d="M 691 4666 
L 3169 4666 
L 3169 4134 
L 1269 4134 
L 1269 2991 
Q 1406 3038 1543 3061 
Q 1681 3084 1819 3084 
Q 2600 3084 3056 2656 
Q 3513 2228 3513 1497 
Q 3513 744 3044 326 
Q 2575 -91 1722 -91 
Q 1428 -91 1123 -41 
Q 819 9 494 109 
L 494 744 
Q 775 591 1075 516 
Q 1375 441 1709 441 
Q 2250 441 2565 725 
Q 2881 1009 2881 1497 
Q 2881 1984 2565 2268 
Q 2250 2553 1709 2553 
Q 1456 2553 1204 2497 
Q 953 2441 691 2322 
L 691 4666 
z
" id="DejaVuSans-35" transform="scale(0.015625)"/>
       </defs>
       <use xlink:href="#DejaVuSans-2212"/>
       <use x="83.789062" xlink:href="#DejaVuSans-35"/>
      </g>
     </g>
    </g>
    <g id="xtick_2">
     <g id="line2d_2">
      <g>
       <use style="stroke:#000000;stroke-width:0.8;" x="122.850104" xlink:href="#m274219bd0f" y="307.584"/>
      </g>
     </g>
     <g id="text_2">
      <!-- −4 -->
      <g transform="translate(115.47901 322.182437)scale(0.1 -0.1)">
       <defs>
        <path d="M 2419 4116 
L 825 1625 
L 2419 1625 
L 2419 4116 
z
M 2253 4666 
L 3047 4666 
L 3047 1625 
L 3713 1625 
L 3713 1100 
L 3047 1100 
L 3047 0 
L 2419 0 
L 2419 1100 
L 313 1100 
L 313 1709 
L 2253 4666 
z
" id="DejaVuSans-34" transform="scale(0.015625)"/>
       </defs>
       <use xlink:href="#DejaVuSans-2212"/>
       <use x="83.789062" xlink:href="#DejaVuSans-34"/>
      </g>
     </g>
    </g>
    <g id="xtick_3">
     <g id="line2d_3">
      <g>
       <use style="stroke:#000000;stroke-width:0.8;" x="185.524989" xlink:href="#m274219bd0f" y="307.584"/>
      </g>
     </g>
     <g id="text_3">
      <!-- −3 -->
      <g transform="translate(178.153896 322.182437)scale(0.1 -0.1)">
       <defs>
        <path d="M 2597 2516 
Q 3050 2419 3304 2112 
Q 3559 1806 3559 1356 
Q 3559 666 3084 287 
Q 2609 -91 1734 -91 
Q 1441 -91 1130 -33 
Q 819 25 488 141 
L 488 750 
Q 750 597 1062 519 
Q 1375 441 1716 441 
Q 2309 441 2620 675 
Q 2931 909 2931 1356 
Q 2931 1769 2642 2001 
Q 2353 2234 1838 2234 
L 1294 2234 
L 1294 2753 
L 1863 2753 
Q 2328 2753 2575 2939 
Q 2822 3125 2822 3475 
Q 2822 3834 2567 4026 
Q 2313 4219 1838 4219 
Q 1578 4219 1281 4162 
Q 984 4106 628 3988 
L 628 4550 
Q 988 4650 1302 4700 
Q 1616 4750 1894 4750 
Q 2613 4750 3031 4423 
Q 3450 4097 3450 3541 
Q 3450 3153 3228 2886 
Q 3006 2619 2597 2516 
z
" id="DejaVuSans-33" transform="scale(0.015625)"/>
       </defs>
       <use xlink:href="#DejaVuSans-2212"/>
       <use x="83.789062" xlink:href="#DejaVuSans-33"/>
      </g>
     </g>
    </g>
    <g id="xtick_4">
     <g id="line2d_4">
      <g>
       <use style="stroke:#000000;stroke-width:0.8;" x="248.199875" xlink:href="#m274219bd0f" y="307.584"/>
      </g>
     </g>
     <g id="text_4">
      <!-- −2 -->
      <g transform="translate(240.828781 322.182437)scale(0.1 -0.1)">
       <defs>
        <path d="M 1228 531 
L 3431 531 
L 3431 0 
L 469 0 
L 469 531 
Q 828 903 1448 1529 
Q 2069 2156 2228 2338 
Q 2531 2678 2651 2914 
Q 2772 3150 2772 3378 
Q 2772 3750 2511 3984 
Q 2250 4219 1831 4219 
Q 1534 4219 1204 4116 
Q 875 4013 500 3803 
L 500 4441 
Q 881 4594 1212 4672 
Q 1544 4750 1819 4750 
Q 2544 4750 2975 4387 
Q 3406 4025 3406 3419 
Q 3406 3131 3298 2873 
Q 3191 2616 2906 2266 
Q 2828 2175 2409 1742 
Q 1991 1309 1228 531 
z
" id="DejaVuSans-32" transform="scale(0.015625)"/>
       </defs>
       <use xlink:href="#DejaVuSans-2212"/>
       <use x="83.789062" xlink:href="#DejaVuSans-32"/>
      </g>
     </g>
    </g>
    <g id="xtick_5">
     <g id="line2d_5">
      <g>
       <use style="stroke:#000000;stroke-width:0.8;" x="310.874761" xlink:href="#m274219bd0f" y="307.584"/>
      </g>
     </g>
     <g id="text_5">
      <!-- −1 -->
      <g transform="translate(303.503667 322.182437)scale(0.1 -0.1)">
       <defs>
        <path d="M 794 531 
L 1825 531 
L 1825 4091 
L 703 3866 
L 703 4441 
L 1819 4666 
L 2450 4666 
L 2450 531 
L 3481 531 
L 3481 0 
L 794 0 
L 794 531 
z
" id="DejaVuSans-31" transform="scale(0.015625)"/>
       </defs>
       <use xlink:href="#DejaVuSans-2212"/>
       <use x="83.789062" xlink:href="#DejaVuSans-31"/>
      </g>
     </g>
    </g>
    <g id="xtick_6">
     <g id="line2d_6">
      <g>
       <use style="stroke:#000000;stroke-width:0.8;" x="373.549646" xlink:href="#m274219bd0f" y="307.584"/>
      </g>
     </g>
     <g id="text_6">
      <!-- 0 -->
      <g transform="translate(370.368396 322.182437)scale(0.1 -0.1)">
       <defs>
        <path d="M 2034 4250 
Q 1547 4250 1301 3770 
Q 1056 3291 1056 2328 
Q 1056 1369 1301 889 
Q 1547 409 2034 409 
Q 2525 409 2770 889 
Q 3016 1369 3016 2328 
Q 3016 3291 2770 3770 
Q 2525 4250 2034 4250 
z
M 2034 4750 
Q 2819 4750 3233 4129 
Q 3647 3509 3647 2328 
Q 3647 1150 3233 529 
Q 2819 -91 2034 -91 
Q 1250 -91 836 529 
Q 422 1150 422 2328 
Q 422 3509 836 4129 
Q 1250 4750 2034 4750 
z
" id="DejaVuSans-30" transform="scale(0.015625)"/>
       </defs>
       <use xlink:href="#DejaVuSans-30"/>
      </g>
     </g>
    </g>
   </g>
   <g id="matplotlib.axis_2">
    <g id="ytick_1">
     <g id="line2d_7">
      <defs>
       <path d="M 0 0 
L -3.5 0 
" id="m67945a7907" style="stroke:#000000;stroke-width:0.8;"/>
      </defs>
      <g>
       <use style="stroke:#000000;stroke-width:0.8;" x="57.6" xlink:href="#m67945a7907" y="272.648074"/>
      </g>
     </g>
     <g id="text_7">
      <!-- 1.8 -->
      <g transform="translate(34.696875 276.447293)scale(0.1 -0.1)">
       <defs>
        <path d="M 684 794 
L 1344 794 
L 1344 0 
L 684 0 
L 684 794 
z
" id="DejaVuSans-2e" transform="scale(0.015625)"/>
        <path d="M 2034 2216 
Q 1584 2216 1326 1975 
Q 1069 1734 1069 1313 
Q 1069 891 1326 650 
Q 1584 409 2034 409 
Q 2484 409 2743 651 
Q 3003 894 3003 1313 
Q 3003 1734 2745 1975 
Q 2488 2216 2034 2216 
z
M 1403 2484 
Q 997 2584 770 2862 
Q 544 3141 544 3541 
Q 544 4100 942 4425 
Q 1341 4750 2034 4750 
Q 2731 4750 3128 4425 
Q 3525 4100 3525 3541 
Q 3525 3141 3298 2862 
Q 3072 2584 2669 2484 
Q 3125 2378 3379 2068 
Q 3634 1759 3634 1313 
Q 3634 634 3220 271 
Q 2806 -91 2034 -91 
Q 1263 -91 848 271 
Q 434 634 434 1313 
Q 434 1759 690 2068 
Q 947 2378 1403 2484 
z
M 1172 3481 
Q 1172 3119 1398 2916 
Q 1625 2713 2034 2713 
Q 2441 2713 2670 2916 
Q 2900 3119 2900 3481 
Q 2900 3844 2670 4047 
Q 2441 4250 2034 4250 
Q 1625 4250 1398 4047 
Q 1172 3844 1172 3481 
z
" id="DejaVuSans-38" transform="scale(0.015625)"/>
       </defs>
       <use xlink:href="#DejaVuSans-31"/>
       <use x="63.623047" xlink:href="#DejaVuSans-2e"/>
       <use x="95.410156" xlink:href="#DejaVuSans-38"/>
      </g>
     </g>
    </g>
    <g id="ytick_2">
     <g id="line2d_8">
      <g>
       <use style="stroke:#000000;stroke-width:0.8;" x="57.6" xlink:href="#m67945a7907" y="222.734665"/>
      </g>
     </g>
     <g id="text_8">
      <!-- 1.9 -->
      <g transform="translate(34.696875 226.533883)scale(0.1 -0.1)">
       <defs>
        <path d="M 703 97 
L 703 672 
Q 941 559 1184 500 
Q 1428 441 1663 441 
Q 2288 441 2617 861 
Q 2947 1281 2994 2138 
Q 2813 1869 2534 1725 
Q 2256 1581 1919 1581 
Q 1219 1581 811 2004 
Q 403 2428 403 3163 
Q 403 3881 828 4315 
Q 1253 4750 1959 4750 
Q 2769 4750 3195 4129 
Q 3622 3509 3622 2328 
Q 3622 1225 3098 567 
Q 2575 -91 1691 -91 
Q 1453 -91 1209 -44 
Q 966 3 703 97 
z
M 1959 2075 
Q 2384 2075 2632 2365 
Q 2881 2656 2881 3163 
Q 2881 3666 2632 3958 
Q 2384 4250 1959 4250 
Q 1534 4250 1286 3958 
Q 1038 3666 1038 3163 
Q 1038 2656 1286 2365 
Q 1534 2075 1959 2075 
z
" id="DejaVuSans-39" transform="scale(0.015625)"/>
       </defs>
       <use xlink:href="#DejaVuSans-31"/>
       <use x="63.623047" xlink:href="#DejaVuSans-2e"/>
       <use x="95.410156" xlink:href="#DejaVuSans-39"/>
      </g>
     </g>
    </g>
    <g id="ytick_3">
     <g id="line2d_9">
      <g>
       <use style="stroke:#000000;stroke-width:0.8;" x="57.6" xlink:href="#m67945a7907" y="172.821255"/>
      </g>
     </g>
     <g id="text_9">
      <!-- 2.0 -->
      <g transform="translate(34.696875 176.620474)scale(0.1 -0.1)">
       <use xlink:href="#DejaVuSans-32"/>
       <use x="63.623047" xlink:href="#DejaVuSans-2e"/>
       <use x="95.410156" xlink:href="#DejaVuSans-30"/>
      </g>
     </g>
    </g>
    <g id="ytick_4">
     <g id="line2d_10">
      <g>
       <use style="stroke:#000000;stroke-width:0.8;" x="57.6" xlink:href="#m67945a7907" y="122.907846"/>
      </g>
     </g>
     <g id="text_10">
      <!-- 2.1 -->
      <g transform="translate(34.696875 126.707065)scale(0.1 -0.1)">
       <use xlink:href="#DejaVuSans-32"/>
       <use x="63.623047" xlink:href="#DejaVuSans-2e"/>
       <use x="95.410156" xlink:href="#DejaVuSans-31"/>
      </g>
     </g>
    </g>
    <g id="ytick_5">
     <g id="line2d_11">
      <g>
       <use style="stroke:#000000;stroke-width:0.8;" x="57.6" xlink:href="#m67945a7907" y="72.994437"/>
      </g>
     </g>
     <g id="text_11">
      <!-- 2.2 -->
      <g transform="translate(34.696875 76.793655)scale(0.1 -0.1)">
       <use xlink:href="#DejaVuSans-32"/>
       <use x="63.623047" xlink:href="#DejaVuSans-2e"/>
       <use x="95.410156" xlink:href="#DejaVuSans-32"/>
      </g>
     </g>
    </g>
   </g>
   <g id="line2d_12">
    <path clip-path="url(#pc4ab6550ca)" d="M 260.197777 168.532747 
L 339.121699 174.313751 
L 194.368399 163.710889 
L 214.598905 165.192729 
L 205.078317 164.495367 
L 342.313432 174.547539 
L 329.207461 173.587555 
L 182.462391 162.8388 
L 321.246108 173.004403 
L 306.450163 171.920633 
L 234.681815 166.663758 
L 242.707757 167.251641 
L 205.628456 164.535663 
L 221.331366 165.685867 
L 142.398499 159.904207 
L 363.198359 176.077314 
L 349.424918 175.068439 
L 287.496592 170.532325 
L 252.909534 167.998899 
L 136.655474 159.483543 
L 227.342228 166.12615 
L 321.220121 173.0025 
L 237.796231 166.891882 
L 221.866185 165.725041 
L 248.031789 167.641615 
L 239.10143 166.987485 
L 272.331743 169.421533 
L 391.578466 178.156094 
L 262.462143 168.698606 
L 303.349705 171.693531 
L 325.482687 173.314723 
L 178.405813 162.541664 
L 254.7314 168.132346 
L 331.383497 173.746945 
L 280.571086 170.025047 
L 324.902415 173.27222 
L 186.817043 163.157769 
L 223.668143 165.857031 
L 301.159313 171.533089 
L 283.199023 170.217538 
L 355.535061 175.515994 
L 293.488736 170.971236 
L 263.648409 168.785498 
L 184.762505 163.007278 
L 209.213256 164.798242 
L 320.70134 172.9645 
L 207.050693 164.639839 
L 258.277013 168.392055 
L 323.278399 173.153264 
L 214.409801 165.178878 
L 205.889986 164.55482 
L 164.178451 161.499541 
L 239.363696 167.006696 
L 208.363858 164.736026 
L 395.289344 178.427908 
L 230.530556 166.359688 
L 278.232361 169.85374 
L 362.520801 176.027684 
L 218.794639 165.500057 
L 369.373155 176.529604 
L 133.114137 159.224148 
L 295.460959 171.115697 
L 301.7887 171.579191 
L 202.75726 164.325355 
L 234.270042 166.633597 
L 166.657128 161.681099 
L 270.01009 169.251477 
L 286.264718 170.442093 
L 241.006437 167.127023 
L 151.847536 160.596329 
L 166.952921 161.702765 
L 318.628856 172.812695 
L 341.741958 174.505679 
L 269.374739 169.204939 
L 300.56369 171.489461 
L 227.041594 166.104129 
L 398.425626 178.657634 
L 274.961077 169.614126 
L 247.388528 167.594497 
L 352.788932 175.314846 
L 179.559049 162.626136 
L 217.943181 165.43769 
L 217.0022 165.368765 
L 267.650681 169.078656 
L 218.298357 165.463706 
L 211.629533 164.975229 
L 183.898066 162.94396 
L 255.388795 168.180499 
L 215.918701 165.289401 
L 269.021728 169.179082 
L 273.532935 169.509518 
L 73.856785 154.883677 
L 215.519072 165.260129 
L 181.078433 162.737428 
L 245.604373 167.463812 
L 244.525153 167.384761 
L 357.399895 175.652589 
L 280.272398 170.003169 
L 301.121298 171.530305 
L 342.243818 174.542439 
" style="fill:none;stroke:#000000;stroke-linecap:square;stroke-opacity:0.5;stroke-width:1.5;"/>
   </g>
   <g id="patch_3">
    <path d="M 57.6 307.584 
L 57.6 41.472 
" style="fill:none;stroke:#000000;stroke-linecap:square;stroke-linejoin:miter;stroke-width:0.8;"/>
   </g>
   <g id="patch_4">
    <path d="M 414.72 307.584 
L 414.72 41.472 
" style="fill:none;stroke:#000000;stroke-linecap:square;stroke-linejoin:miter;stroke-width:0.8;"/>
   </g>
   <g id="patch_5">
    <path d="M 57.6 307.584 
L 414.72 307.584 
" style="fill:none;stroke:#000000;stroke-linecap:square;stroke-linejoin:miter;stroke-width:0.8;"/>
   </g>
   <g id="patch_6">
    <path d="M 57.6 41.472 
L 414.72 41.472 
" style="fill:none;stroke:#000000;stroke-linecap:square;stroke-linejoin:miter;stroke-width:0.8;"/>
   </g>
   <g id="legend_1">
    <g id="patch_7">
     <path d="M 64.6 93.506375 
L 153.879687 93.506375 
Q 155.879687 93.506375 155.879687 91.506375 
L 155.879687 48.472 
Q 155.879687 46.472 153.879687 46.472 
L 64.6 46.472 
Q 62.6 46.472 62.6 48.472 
L 62.6 91.506375 
Q 62.6 93.506375 64.6 93.506375 
z
" style="fill:#ffffff;opacity:0.8;stroke:#cccccc;stroke-linejoin:miter;"/>
    </g>
    <g id="line2d_13">
     <path d="M 66.6 54.570438 
L 86.6 54.570438 
" style="fill:none;stroke:#000000;stroke-linecap:square;stroke-opacity:0.5;stroke-width:1.5;"/>
    </g>
    <g id="line2d_14"/>
    <g id="text_12">
     <!-- Vector -->
     <g transform="translate(94.6 58.070438)scale(0.1 -0.1)">
      <defs>
       <path d="M 1831 0 
L 50 4666 
L 709 4666 
L 2188 738 
L 3669 4666 
L 4325 4666 
L 2547 0 
L 1831 0 
z
" id="DejaVuSans-56" transform="scale(0.015625)"/>
       <path d="M 3597 1894 
L 3597 1613 
L 953 1613 
Q 991 1019 1311 708 
Q 1631 397 2203 397 
Q 2534 397 2845 478 
Q 3156 559 3463 722 
L 3463 178 
Q 3153 47 2828 -22 
Q 2503 -91 2169 -91 
Q 1331 -91 842 396 
Q 353 884 353 1716 
Q 353 2575 817 3079 
Q 1281 3584 2069 3584 
Q 2775 3584 3186 3129 
Q 3597 2675 3597 1894 
z
M 3022 2063 
Q 3016 2534 2758 2815 
Q 2500 3097 2075 3097 
Q 1594 3097 1305 2825 
Q 1016 2553 972 2059 
L 3022 2063 
z
" id="DejaVuSans-65" transform="scale(0.015625)"/>
       <path d="M 3122 3366 
L 3122 2828 
Q 2878 2963 2633 3030 
Q 2388 3097 2138 3097 
Q 1578 3097 1268 2742 
Q 959 2388 959 1747 
Q 959 1106 1268 751 
Q 1578 397 2138 397 
Q 2388 397 2633 464 
Q 2878 531 3122 666 
L 3122 134 
Q 2881 22 2623 -34 
Q 2366 -91 2075 -91 
Q 1284 -91 818 406 
Q 353 903 353 1747 
Q 353 2603 823 3093 
Q 1294 3584 2113 3584 
Q 2378 3584 2631 3529 
Q 2884 3475 3122 3366 
z
" id="DejaVuSans-63" transform="scale(0.015625)"/>
       <path d="M 1172 4494 
L 1172 3500 
L 2356 3500 
L 2356 3053 
L 1172 3053 
L 1172 1153 
Q 1172 725 1289 603 
Q 1406 481 1766 481 
L 2356 481 
L 2356 0 
L 1766 0 
Q 1100 0 847 248 
Q 594 497 594 1153 
L 594 3053 
L 172 3053 
L 172 3500 
L 594 3500 
L 594 4494 
L 1172 4494 
z
" id="DejaVuSans-74" transform="scale(0.015625)"/>
       <path d="M 1959 3097 
Q 1497 3097 1228 2736 
Q 959 2375 959 1747 
Q 959 1119 1226 758 
Q 1494 397 1959 397 
Q 2419 397 2687 759 
Q 2956 1122 2956 1747 
Q 2956 2369 2687 2733 
Q 2419 3097 1959 3097 
z
M 1959 3584 
Q 2709 3584 3137 3096 
Q 3566 2609 3566 1747 
Q 3566 888 3137 398 
Q 2709 -91 1959 -91 
Q 1206 -91 779 398 
Q 353 888 353 1747 
Q 353 2609 779 3096 
Q 1206 3584 1959 3584 
z
" id="DejaVuSans-6f" transform="scale(0.015625)"/>
       <path d="M 2631 2963 
Q 2534 3019 2420 3045 
Q 2306 3072 2169 3072 
Q 1681 3072 1420 2755 
Q 1159 2438 1159 1844 
L 1159 0 
L 581 0 
L 581 3500 
L 1159 3500 
L 1159 2956 
Q 1341 3275 1631 3429 
Q 1922 3584 2338 3584 
Q 2397 3584 2469 3576 
Q 2541 3569 2628 3553 
L 2631 2963 
z
" id="DejaVuSans-72" transform="scale(0.015625)"/>
      </defs>
      <use xlink:href="#DejaVuSans-56"/>
      <use x="60.658203" xlink:href="#DejaVuSans-65"/>
      <use x="122.181641" xlink:href="#DejaVuSans-63"/>
      <use x="177.162109" xlink:href="#DejaVuSans-74"/>
      <use x="216.371094" xlink:href="#DejaVuSans-6f"/>
      <use x="277.552734" xlink:href="#DejaVuSans-72"/>
     </g>
    </g>
    <g id="PathCollection_3">
     <g>
      <use style="fill:#0000ff;stroke:#0000ff;stroke-width:1.5;" x="76.6" xlink:href="#m5fe759677a" y="70.123563"/>
     </g>
    </g>
    <g id="text_13">
     <!-- Origin Data -->
     <g transform="translate(94.6 72.748563)scale(0.1 -0.1)">
      <defs>
       <path d="M 2522 4238 
Q 1834 4238 1429 3725 
Q 1025 3213 1025 2328 
Q 1025 1447 1429 934 
Q 1834 422 2522 422 
Q 3209 422 3611 934 
Q 4013 1447 4013 2328 
Q 4013 3213 3611 3725 
Q 3209 4238 2522 4238 
z
M 2522 4750 
Q 3503 4750 4090 4092 
Q 4678 3434 4678 2328 
Q 4678 1225 4090 567 
Q 3503 -91 2522 -91 
Q 1538 -91 948 565 
Q 359 1222 359 2328 
Q 359 3434 948 4092 
Q 1538 4750 2522 4750 
z
" id="DejaVuSans-4f" transform="scale(0.015625)"/>
       <path d="M 603 3500 
L 1178 3500 
L 1178 0 
L 603 0 
L 603 3500 
z
M 603 4863 
L 1178 4863 
L 1178 4134 
L 603 4134 
L 603 4863 
z
" id="DejaVuSans-69" transform="scale(0.015625)"/>
       <path d="M 2906 1791 
Q 2906 2416 2648 2759 
Q 2391 3103 1925 3103 
Q 1463 3103 1205 2759 
Q 947 2416 947 1791 
Q 947 1169 1205 825 
Q 1463 481 1925 481 
Q 2391 481 2648 825 
Q 2906 1169 2906 1791 
z
M 3481 434 
Q 3481 -459 3084 -895 
Q 2688 -1331 1869 -1331 
Q 1566 -1331 1297 -1286 
Q 1028 -1241 775 -1147 
L 775 -588 
Q 1028 -725 1275 -790 
Q 1522 -856 1778 -856 
Q 2344 -856 2625 -561 
Q 2906 -266 2906 331 
L 2906 616 
Q 2728 306 2450 153 
Q 2172 0 1784 0 
Q 1141 0 747 490 
Q 353 981 353 1791 
Q 353 2603 747 3093 
Q 1141 3584 1784 3584 
Q 2172 3584 2450 3431 
Q 2728 3278 2906 2969 
L 2906 3500 
L 3481 3500 
L 3481 434 
z
" id="DejaVuSans-67" transform="scale(0.015625)"/>
       <path d="M 3513 2113 
L 3513 0 
L 2938 0 
L 2938 2094 
Q 2938 2591 2744 2837 
Q 2550 3084 2163 3084 
Q 1697 3084 1428 2787 
Q 1159 2491 1159 1978 
L 1159 0 
L 581 0 
L 581 3500 
L 1159 3500 
L 1159 2956 
Q 1366 3272 1645 3428 
Q 1925 3584 2291 3584 
Q 2894 3584 3203 3211 
Q 3513 2838 3513 2113 
z
" id="DejaVuSans-6e" transform="scale(0.015625)"/>
       <path id="DejaVuSans-20" transform="scale(0.015625)"/>
       <path d="M 1259 4147 
L 1259 519 
L 2022 519 
Q 2988 519 3436 956 
Q 3884 1394 3884 2338 
Q 3884 3275 3436 3711 
Q 2988 4147 2022 4147 
L 1259 4147 
z
M 628 4666 
L 1925 4666 
Q 3281 4666 3915 4102 
Q 4550 3538 4550 2338 
Q 4550 1131 3912 565 
Q 3275 0 1925 0 
L 628 0 
L 628 4666 
z
" id="DejaVuSans-44" transform="scale(0.015625)"/>
       <path d="M 2194 1759 
Q 1497 1759 1228 1600 
Q 959 1441 959 1056 
Q 959 750 1161 570 
Q 1363 391 1709 391 
Q 2188 391 2477 730 
Q 2766 1069 2766 1631 
L 2766 1759 
L 2194 1759 
z
M 3341 1997 
L 3341 0 
L 2766 0 
L 2766 531 
Q 2569 213 2275 61 
Q 1981 -91 1556 -91 
Q 1019 -91 701 211 
Q 384 513 384 1019 
Q 384 1609 779 1909 
Q 1175 2209 1959 2209 
L 2766 2209 
L 2766 2266 
Q 2766 2663 2505 2880 
Q 2244 3097 1772 3097 
Q 1472 3097 1187 3025 
Q 903 2953 641 2809 
L 641 3341 
Q 956 3463 1253 3523 
Q 1550 3584 1831 3584 
Q 2591 3584 2966 3190 
Q 3341 2797 3341 1997 
z
" id="DejaVuSans-61" transform="scale(0.015625)"/>
      </defs>
      <use xlink:href="#DejaVuSans-4f"/>
      <use x="78.710938" xlink:href="#DejaVuSans-72"/>
      <use x="119.824219" xlink:href="#DejaVuSans-69"/>
      <use x="147.607422" xlink:href="#DejaVuSans-67"/>
      <use x="211.083984" xlink:href="#DejaVuSans-69"/>
      <use x="238.867188" xlink:href="#DejaVuSans-6e"/>
      <use x="302.246094" xlink:href="#DejaVuSans-20"/>
      <use x="334.033203" xlink:href="#DejaVuSans-44"/>
      <use x="411.035156" xlink:href="#DejaVuSans-61"/>
      <use x="472.314453" xlink:href="#DejaVuSans-74"/>
      <use x="511.523438" xlink:href="#DejaVuSans-61"/>
     </g>
    </g>
    <g id="PathCollection_4">
     <g>
      <use style="fill:#ff0000;stroke:#ff0000;" x="76.6" xlink:href="#m9824b8d8af" y="84.801688"/>
     </g>
    </g>
    <g id="text_14">
     <!-- PCA Data -->
     <g transform="translate(94.6 87.426688)scale(0.1 -0.1)">
      <defs>
       <path d="M 1259 4147 
L 1259 2394 
L 2053 2394 
Q 2494 2394 2734 2622 
Q 2975 2850 2975 3272 
Q 2975 3691 2734 3919 
Q 2494 4147 2053 4147 
L 1259 4147 
z
M 628 4666 
L 2053 4666 
Q 2838 4666 3239 4311 
Q 3641 3956 3641 3272 
Q 3641 2581 3239 2228 
Q 2838 1875 2053 1875 
L 1259 1875 
L 1259 0 
L 628 0 
L 628 4666 
z
" id="DejaVuSans-50" transform="scale(0.015625)"/>
       <path d="M 4122 4306 
L 4122 3641 
Q 3803 3938 3442 4084 
Q 3081 4231 2675 4231 
Q 1875 4231 1450 3742 
Q 1025 3253 1025 2328 
Q 1025 1406 1450 917 
Q 1875 428 2675 428 
Q 3081 428 3442 575 
Q 3803 722 4122 1019 
L 4122 359 
Q 3791 134 3420 21 
Q 3050 -91 2638 -91 
Q 1578 -91 968 557 
Q 359 1206 359 2328 
Q 359 3453 968 4101 
Q 1578 4750 2638 4750 
Q 3056 4750 3426 4639 
Q 3797 4528 4122 4306 
z
" id="DejaVuSans-43" transform="scale(0.015625)"/>
       <path d="M 2188 4044 
L 1331 1722 
L 3047 1722 
L 2188 4044 
z
M 1831 4666 
L 2547 4666 
L 4325 0 
L 3669 0 
L 3244 1197 
L 1141 1197 
L 716 0 
L 50 0 
L 1831 4666 
z
" id="DejaVuSans-41" transform="scale(0.015625)"/>
      </defs>
      <use xlink:href="#DejaVuSans-50"/>
      <use x="60.302734" xlink:href="#DejaVuSans-43"/>
      <use x="130.126953" xlink:href="#DejaVuSans-41"/>
      <use x="198.535156" xlink:href="#DejaVuSans-20"/>
      <use x="230.322266" xlink:href="#DejaVuSans-44"/>
      <use x="307.324219" xlink:href="#DejaVuSans-61"/>
      <use x="368.603516" xlink:href="#DejaVuSans-74"/>
      <use x="407.8125" xlink:href="#DejaVuSans-61"/>
     </g>
    </g>
   </g>
  </g>
 </g>
 <defs>
  <clipPath id="pc4ab6550ca">
   <rect height="266.112" width="357.12" x="57.6" y="41.472"/>
  </clipPath>
 </defs>
</svg>
